# xmcd
#
# Track frame offsets:
#	150
#	17519
#	37433
#	50473
#	68886
#	83946
#	99789
#	113264
#	127662
#	143896
#	160568
#	176297
#	190114
#
# Disc length: 2751 seconds
#
# Revision: 1
# Processed by: cddbd v1.5.2PL0 Copyright (c) Steve Scherf et al.
# Submitted via: audiograbber 1.83.01
#
DISCID=970abd0d
DTITLE=ADELSON VIANA - DA CIDADE AO SERTÃO
DYEAR=1900
DGENRE=
TTITLE0=RISO DE CANTO CANTO
TTITLE1=DAQUELE JEITO
TTITLE2=CIGARRA VADIA
TTITLE3=QUERER-DOMINGUINHOS
TTITLE4=TERRAL
TTITLE5=BEIJO DOCE
TTITLE6=MAXIXADA(INST.)
TTITLE7=DA CIDADE AO SERTÃO-MACIEL MELO
TTITLE8=XOTE DA MARIANA
TTITLE9=ARROCHA SANFONEIRO
TTITLE10=RECORDAÇÕES
TTITLE11=A SAUDADE MATA
TTITLE12=ROSA
EXTD=
EXTT0=
EXTT1=
EXTT2=
EXTT3=
EXTT4=
EXTT5=
EXTT6=
EXTT7=
EXTT8=
EXTT9=
EXTT10=
EXTT11=
EXTT12=
PLAYORDER=
